<svg width="400" height="117" viewBox="0 0 400 117" fill="none" xmlns="http://www.w3.org/2000/svg">
<g clip-path="url(#clip0_1380_488)">
<path d="M380.379 70.7054C370.987 69.0392 364.83 61.4129 365.031 51.6843L365.443 31.355L358.104 51.6843C355.817 58.0135 351.188 63.4481 345.477 66.9369C341.372 69.4418 336.788 70.6718 332.359 70.806L229.113 74.1719L331.076 77.5489C335.449 77.6943 339.565 78.9243 342.711 81.418C347.094 84.9068 349.649 90.3414 349.526 96.6706L349.113 117L356.453 96.6706C359.967 86.9308 369.024 79.3045 379.052 77.6495L399.989 74.1719L380.368 70.6942L380.379 70.7054Z" fill="#FFFDF8"/>
<path d="M119.085 12.6469C115.973 11.2044 111.813 10.4888 106.603 10.4888C102.666 10.4888 98.6615 10.9025 94.5789 11.73C90.4852 12.5351 86.4584 13.631 82.4874 14.984C79.8327 15.8898 77.3787 16.885 74.8801 17.8579C73.8539 15.6326 72.2922 13.7987 69.7825 12.6469C66.6815 11.2044 62.4875 10.4888 57.2114 10.4888C53.4077 10.4888 49.4925 10.9025 45.4545 11.73C41.4166 12.5351 37.4568 13.6533 33.5639 15.0288C32.0022 15.5767 30.5633 16.2029 29.0463 16.7844L29.816 11.73H15.2259L0 56.5597H16.5979L26.2577 28.112C30.0167 27.0609 33.6308 26.1216 36.8321 25.4618C40.5354 24.7014 43.9822 24.31 47.1389 24.31C50.0837 24.31 52.3815 24.6791 54.0658 25.4171C55.739 26.1439 56.8098 27.2622 57.2783 28.7606C57.7356 30.259 57.5683 32.16 56.7875 34.4412L49.2805 56.5597H65.8896L74.367 31.6344C74.8243 30.3037 74.947 29.2191 75.2259 28.0226C79.0184 26.9938 82.6771 26.0545 85.9119 25.4395C89.7044 24.7126 93.2069 24.3324 96.4306 24.3324C99.353 24.3324 101.673 24.7014 103.346 25.4395C105.02 26.1775 106.102 27.2845 106.559 28.7829C107.016 30.2814 106.849 32.1824 106.079 34.4635L98.5611 56.582H115.17L123.636 31.6568C125.354 26.6136 125.8 22.5432 124.975 19.4569C124.149 16.3706 122.175 14.1006 119.063 12.6805L119.085 12.6469Z" fill="#FFFDF8"/>
<path d="M192.259 11.6743C186.046 11.0592 179.074 10.7573 171.344 10.7573C164.607 10.7573 158.45 11.4842 152.861 12.949C147.262 14.4251 142.454 16.874 138.45 20.2958C134.445 23.7399 131.4 28.4812 129.359 34.5308C127.474 40.0437 127.072 44.4942 128.132 47.8713C129.18 51.2371 131.445 53.686 134.958 55.1733C138.45 56.6717 142.845 57.4209 148.121 57.4209C152.571 57.4209 157.067 56.9624 161.584 56.0567C166.113 55.1397 170.541 53.9656 174.858 52.5343C176.799 51.8857 178.528 51.1365 180.368 50.4432L179.521 56.5375H194.111L208.656 13.7318H208.612L208.69 13.6423C203.949 12.9379 198.472 12.2781 192.27 11.6519L192.259 11.6743ZM169.058 42.4702C164.295 43.2865 159.956 43.6891 156.029 43.6891C151.222 43.6891 148.076 42.9622 146.581 41.4974C145.087 40.0213 144.953 37.5053 146.169 33.9158C146.961 31.5675 148.199 29.6889 149.839 28.2799C151.489 26.8598 153.586 25.8198 156.119 25.1489C158.673 24.478 161.662 24.1313 165.131 24.1313C168.757 24.1313 172.549 24.2655 176.52 24.4891C180.491 24.724 184.284 25.0035 187.92 25.3166C187.976 25.3166 188.032 25.3166 188.087 25.3278L183.369 39.2162C178.349 40.5581 173.542 41.6875 169.058 42.4702Z" fill="#FFFDF8"/>
<path d="M252.214 56.7276C257.01 56.0343 261.349 55.2292 265.231 54.3458L266.547 41.1395C263.056 41.7769 259.475 42.3584 255.85 42.8952C252.214 43.4207 248.243 43.6779 243.982 43.6779C240.524 43.6779 237.88 43.3984 236.073 42.8057C234.244 42.213 233.173 41.1731 232.85 39.7194C232.526 38.2657 232.816 36.2305 233.697 33.6362L236.62 25.0147H271.578L276.129 11.6296H241.16L245.108 0H231.756L224.919 11.6296H214.891L210.34 25.0147H219.91L216.386 35.4142C214.534 40.8712 214.155 45.2434 215.226 48.5422C216.319 51.8298 218.739 54.1892 222.532 55.6429C226.313 57.0743 231.377 57.7899 237.702 57.7899C242.565 57.7899 247.395 57.4433 252.214 56.7276Z" fill="#FFFDF8"/>
<path d="M275.303 47.6138C276.664 51.1027 279.754 53.6858 284.595 55.3184C289.425 56.9622 296.084 57.7897 304.584 57.7897C308.399 57.7897 312.37 57.6331 316.542 57.3536C320.725 57.0628 324.74 56.6603 328.655 56.1123C332.548 55.5868 335.984 55.0053 338.962 54.3567L339.687 42.3805C337.847 42.6154 335.504 42.9285 332.649 43.3087C329.793 43.7 326.503 44.0131 322.777 44.2815C319.063 44.5387 314.98 44.6729 310.518 44.6729C306.056 44.6729 302.442 44.5163 299.687 44.2368C296.91 43.946 294.835 43.3981 293.463 42.6042C292.091 41.8214 291.344 40.6696 291.199 39.1712C291.165 38.8022 291.243 38.3214 291.277 37.8964H345.164C345.354 37.4939 345.621 36.8565 345.967 35.9955C346.313 35.1568 346.692 34.2175 347.094 33.2334C347.484 32.227 347.797 31.3772 348.042 30.6727C349.28 27.0385 349.503 23.9186 348.722 21.3243C347.942 18.73 346.246 16.6613 343.692 15.0623C341.126 13.4744 337.791 12.3226 333.697 11.5846C329.604 10.8466 324.919 10.4775 319.576 10.4775C311.901 10.4775 305.142 11.2827 299.33 12.9041C293.519 14.5255 288.655 17.0639 284.751 20.5304C280.847 23.9969 277.958 28.5145 276.062 34.0945C274.188 39.6185 273.943 44.1138 275.303 47.6138ZM303.279 22.6886C306.302 21.9729 310.284 21.5927 315.203 21.5927C320.78 21.5927 324.829 21.9617 327.395 22.6886C329.949 23.4266 331.466 24.5896 331.935 26.1774C332.18 27.0496 332.191 28.1008 332.046 29.2526H294.088C294.735 28.1455 295.448 27.1615 296.24 26.3452C297.902 24.6455 300.234 23.4266 303.279 22.6886Z" fill="#FFFDF8"/>
</g>
<defs>
<clipPath id="clip0_1380_488">
<rect width="400" height="117" fill="white"/>
</clipPath>
</defs>
</svg>
